<?xml version="1.0" standalone="no"?>
<!DOCTYPE svg PUBLIC "-//W3C//DTD SVG 20010904//EN"
 "http://www.w3.org/TR/2001/REC-SVG-20010904/DTD/svg10.dtd">
<svg version="1.0" xmlns="http://www.w3.org/2000/svg"
 width="964.000000pt" height="541.000000pt" viewBox="0 0 964.000000 541.000000"
 preserveAspectRatio="xMidYMid meet">
<metadata>
Created by potrace 1.15, written by Peter Selinger 2001-2017
</metadata>
<g transform="translate(0.000000,541.000000) scale(0.100000,-0.100000)"
fill="#000000" stroke="none">
<path d="M0 2705 l0 -2705 2930 0 2929 0 -29 48 -29 47 16 72 c12 57 20 73 34
73 14 0 18 -13 24 -76 4 -41 5 -95 1 -120 l-6 -44 1885 0 1885 0 0 2705 0
2705 -4820 0 -4820 0 0 -2705z m7598 1929 c20 -14 24 -14 44 0 49 35 108 7
108 -50 0 -33 -1 -34 -43 -34 -38 0 -44 3 -53 27 l-9 28 -18 -38 c-10 -20 -20
-37 -23 -37 -2 0 -9 12 -15 28 -9 24 -12 25 -20 10 -7 -12 -22 -18 -44 -18
-33 0 -35 2 -35 34 0 38 28 66 65 66 11 0 31 -7 43 -16z m-2304 -38 c69 -29
88 -108 40 -165 -23 -27 -32 -31 -79 -31 -47 0 -56 4 -79 31 -47 56 -29 135
38 165 39 17 40 17 80 0z m2381 -73 c7 17 65 26 65 9 0 -4 -27 -31 -60 -60
l-60 -53 -60 52 c-33 29 -60 55 -60 59 0 5 18 10 39 12 35 3 41 0 51 -22 l12
-25 21 40 20 40 12 -35 c10 -28 14 -32 20 -17z m-3390 -518 l0 -110 -55 0 -55
0 -3 99 c-1 55 0 106 3 113 3 10 20 13 57 11 l53 -3 0 -110z m3899 -131 c20
-19 20 -38 1 -57 -17 -18 -10 -27 21 -27 25 0 40 15 24 25 -14 9 -13 48 2 63
17 17 54 15 72 -4 20 -20 20 -38 1 -58 -14 -13 -13 -16 7 -27 31 -16 38 -28
38 -66 0 -37 -6 -42 -54 -45 -20 -2 -36 -6 -36 -10 0 -5 -22 -8 -50 -8 -27 0
-50 3 -50 8 0 4 -13 7 -29 8 -51 2 -61 10 -61 53 0 32 5 44 26 57 17 12 22 20
15 27 -15 15 -14 50 1 65 17 17 54 15 72 -4z m-1964 -134 l0 -71 -87 3 -88 3
-3 54 c-5 81 -5 81 93 81 l85 0 0 -70z m-985 -96 l33 -25 4 23 c2 18 9 23 33
23 29 0 30 -1 33 -57 2 -47 7 -59 27 -72 14 -9 25 -23 25 -32 0 -35 -32 -23
-110 41 l-80 67 -33 -25 c-18 -14 -57 -46 -87 -71 -41 -35 -56 -43 -67 -35 -7
6 -13 17 -12 23 0 10 185 166 196 166 2 0 19 -12 38 -26z m36 -100 l69 -56 0
-68 c0 -38 -4 -70 -10 -72 -5 -1 -32 -1 -60 0 l-50 4 0 44 c0 40 -2 44 -25 44
-23 0 -25 -4 -25 -45 l0 -46 -57 3 -58 3 0 65 0 64 69 58 c38 32 71 58 73 58
2 0 35 -25 74 -56z m2029 0 c11 -12 10 -18 -3 -31 -13 -13 -19 -14 -31 -4 -13
11 -21 -6 -57 -118 l-41 -131 -138 0 -137 0 -17 88 c-9 48 -19 99 -22 115 l-6
27 180 0 c176 0 179 0 191 23 10 19 40 41 62 46 4 0 12 -6 19 -15z m564 -739
c3 -9 20 -21 37 -27 34 -12 54 -50 40 -75 -7 -14 -10 -13 -21 8 -14 27 -29 39
-47 39 -9 0 -13 -22 -13 -79 0 -85 -9 -103 -57 -122 -32 -12 -77 9 -81 37 -4
26 40 57 80 57 l28 0 0 89 c0 69 3 88 14 88 8 0 17 -7 20 -15z m-6899 -180
c20 -66 41 -136 47 -155 11 -34 13 -29 54 123 38 145 54 190 54 159 0 -11 -31
-129 -76 -289 -8 -29 -18 -53 -23 -53 -4 0 -15 28 -25 63 -9 34 -31 107 -48
162 l-30 100 -48 -158 c-45 -149 -55 -176 -63 -166 -11 12 -92 339 -85 339 4
0 8 -2 8 -4 0 -10 79 -298 83 -302 2 -2 13 31 26 74 52 179 74 243 81 235 5
-4 25 -62 45 -128z m745 -40 c34 -92 59 -169 56 -172 -3 -3 -9 3 -12 13 -4 10
-13 34 -20 52 l-13 32 -84 0 -85 0 -18 -50 c-10 -27 -21 -50 -26 -50 -7 0 4
32 81 238 42 112 42 112 51 107 4 -2 35 -79 70 -170z m814 146 c45 -28 69 -82
69 -153 -1 -65 -21 -109 -66 -142 -22 -16 -47 -22 -108 -25 l-79 -3 0 177 0
178 75 -6 c51 -4 86 -12 109 -26z m456 -31 c0 -25 4 -30 25 -30 20 0 25 -5 25
-25 0 -20 -5 -25 -25 -25 -24 0 -25 -2 -25 -66 0 -70 12 -104 35 -104 8 0 15
-9 15 -20 0 -16 -7 -20 -34 -20 -56 0 -66 19 -66 120 0 84 -1 89 -22 92 -15 2
-23 10 -23 23 0 13 8 21 23 23 17 3 22 10 22 33 0 24 4 29 25 29 21 0 25 -5
25 -30z m-1659 -59 c16 -16 29 -36 29 -44 0 -9 3 -22 6 -31 5 -14 -6 -16 -89
-16 -53 0 -98 -4 -101 -8 -11 -17 15 -82 41 -102 30 -23 81 -26 109 -5 29 22
43 17 15 -5 -15 -13 -38 -20 -68 -20 -54 0 -98 37 -108 93 -24 127 86 218 166
138z m810 0 c16 -16 29 -36 29 -44 0 -9 3 -22 6 -31 5 -14 -6 -16 -89 -16 -53
0 -98 -4 -101 -8 -11 -17 15 -82 41 -102 30 -23 81 -26 109 -5 29 22 43 17 15
-5 -15 -13 -38 -20 -68 -20 -54 0 -98 37 -108 93 -24 127 86 218 166 138z
m679 14 c35 -18 38 -30 43 -152 l3 -93 -27 0 c-15 0 -29 6 -32 13 -4 10 -7 10
-18 0 -7 -7 -30 -13 -51 -13 -54 0 -93 38 -84 83 8 43 36 64 96 72 38 5 50 11
50 24 0 41 -45 54 -75 21 -20 -22 -65 -27 -65 -7 0 54 96 85 160 52z m437 -9
c26 -23 28 -29 33 -130 l5 -106 -27 0 c-15 0 -30 5 -33 10 -4 7 -12 7 -25 0
-10 -5 -35 -10 -54 -10 -47 0 -76 29 -76 74 0 45 35 73 101 82 52 7 61 21 33
48 -21 21 -40 20 -64 -4 -19 -19 -70 -28 -70 -12 0 16 33 54 54 62 42 17 94
11 123 -14z m1626 0 c78 -32 109 -115 67 -183 -67 -111 -240 -62 -240 69 0 43
37 93 85 114 38 17 49 17 88 0z m1309 -173 c9 -10 23 -35 31 -55 18 -43 49
-64 75 -49 16 10 16 10 0 11 -10 0 -18 4 -18 9 0 5 15 5 36 1 41 -10 37 -6 54
-48 9 -24 17 -31 29 -27 30 12 35 10 49 -19 14 -27 13 -34 -5 -70 -11 -23 -25
-53 -31 -68 -7 -16 -17 -28 -23 -28 -9 0 -10 -23 -6 -82 5 -68 13 -96 43 -154
l36 -72 -22 -43 c-26 -53 -67 -98 -97 -110 -37 -14 -205 45 -255 89 -27 23
-22 60 12 99 17 18 30 39 30 46 0 7 -21 35 -46 63 -61 64 -94 139 -105 239 -5
44 -12 97 -15 117 -4 23 0 58 11 92 l17 54 58 0 c32 0 66 5 77 11 26 15 48 13
65 -6z m-2164 -493 c27 -17 32 -25 32 -59 0 -47 -13 -59 -65 -59 -47 0 -65 12
-65 42 0 31 19 46 58 46 34 0 34 -1 28 -35 -7 -35 6 -49 18 -19 16 41 -8 74
-55 74 -43 0 -73 -34 -65 -74 8 -42 33 -59 79 -53 45 6 53 -17 7 -26 -90 -19
-150 78 -91 147 33 39 73 44 119 16z m3927 -246 c26 -12 37 -27 49 -61 14 -41
14 -52 0 -105 -24 -96 -96 -216 -119 -200 -23 16 -82 124 -104 191 -43 131 57
231 174 175z m-3347 -201 c20 -16 50 -40 66 -55 17 -16 35 -28 41 -28 6 0 34
16 63 36 62 41 118 55 128 31 10 -26 -13 -54 -79 -98 -34 -23 -63 -43 -64 -44
-6 -3 19 -75 25 -75 5 0 9 -15 10 -32 1 -18 3 -46 4 -63 2 -21 -2 -30 -14 -33
-17 -3 -39 38 -67 124 l-13 42 -59 -37 c-41 -26 -58 -42 -59 -58 0 -33 -17
-37 -35 -9 -11 16 -22 23 -32 19 -13 -5 -15 -2 -10 17 4 15 0 31 -9 42 -21 22
-10 42 16 28 15 -8 31 -2 79 29 l61 39 -33 29 c-63 58 -99 101 -93 112 12 18
35 13 74 -16z m4132 -1133 c0 -27 2 -30 19 -20 51 27 105 -4 103 -60 -1 -38
-8 -49 -39 -61 -18 -7 -33 -5 -54 5 -16 8 -29 10 -29 5 0 -5 -4 -9 -10 -9 -6
0 -10 35 -10 85 0 50 4 85 10 85 6 0 10 -14 10 -30z m450 -37 c39 -50 8 -103
-61 -103 -42 0 -69 27 -69 67 0 61 90 86 130 36z"/>
<path d="M1602 2648 c-16 -46 -33 -91 -37 -100 -6 -16 0 -18 69 -18 42 0 76 4
76 9 0 13 -61 174 -70 184 -4 4 -21 -29 -38 -75z"/>
<path d="M2400 2586 l0 -126 38 0 c66 1 92 37 92 129 0 75 -24 107 -87 117
l-43 7 0 -127z"/>
</g>
</svg>
